<svg width="175" height="161" viewBox="0 0 175 161" fill="none" xmlns="http://www.w3.org/2000/svg">
<path d="M43.8214 141.693L47.8736 144.735L50.1161 143.24L52.2496 144.842L41.0229 152.041L38.7176 150.31L42.5129 137.531L44.6464 139.133L43.8214 141.693ZM43.2152 143.634L41.5007 149.019L46.1935 145.87L43.2152 143.634Z" fill="black"/>
<path d="M34.9418 132.232L32.2166 128.98L33.699 127.738L38.0454 132.926L28.3553 141.044L26.734 139.108L34.9418 132.232Z" fill="black"/>
<path d="M27.1698 121.129L25.1328 117.407L26.8292 116.478L30.078 122.416L18.9886 128.484L17.7767 126.269L27.1698 121.129Z" fill="black"/>
<path d="M20.1863 91.5741L20.539 94.074L12.8191 100.877L21.3293 99.6765L21.682 102.176L9.16482 103.942L8.81218 101.442L16.603 94.6292L8.02186 95.8397L7.66922 93.3398L20.1863 91.5741Z" fill="black"/>
<path d="M18.4808 76.6985L17.8638 81.728L20.2784 82.9262L19.9535 85.5742L8.11558 79.4316L8.46661 76.5703L21.4361 73.4893L21.1112 76.1373L18.4808 76.6985ZM16.4964 77.1406L10.9736 78.3391L16.0428 80.8371L16.4964 77.1406Z" fill="black"/>
<path d="M14.4042 54.7804L16.2777 55.4955L15.0327 58.7575L24.9692 62.5501L24.0689 64.9088L14.1324 61.1162L12.8938 64.3614L11.0202 63.6463L14.4042 54.7804Z" fill="black"/>
<path d="M20.0402 44.4502L26.1556 48.6394C26.973 49.1994 27.7099 49.4437 28.3664 49.3726C29.0197 49.2848 29.5791 48.9011 30.0446 48.2216C30.5033 47.552 30.6523 46.9016 30.4914 46.2705C30.3274 45.6228 29.8367 45.019 29.0193 44.4591L22.9039 40.2698L24.3205 38.2018L30.436 42.3911C31.4011 43.0522 32.0936 43.7943 32.5137 44.6174C32.9306 45.4239 33.0823 46.2585 32.9688 47.1212C32.862 47.9741 32.5321 48.8043 31.9789 49.6118C31.1221 50.8625 30.0632 51.6056 28.8021 51.8414C27.541 52.0771 26.1866 51.6991 24.739 50.7075L18.6235 46.5182L20.0402 44.4502Z" fill="black"/>
<path d="M44.1427 35.9214L38.6616 34.2094L37.8327 34.9478L41.1076 38.6247L39.2223 40.3039L30.8147 30.8642L34.4114 27.6607C35.5078 26.6842 36.5794 26.2093 37.6262 26.236C38.682 26.2548 39.5989 26.7009 40.3769 27.5745C41.012 28.2876 41.3434 29.0634 41.371 29.902C41.4075 30.7327 41.1229 31.5617 40.517 32.3891L46.2286 34.0636L44.1427 35.9214ZM36.6775 33.6508L38.2285 32.2694C39.3071 31.3088 39.4216 30.3515 38.5721 29.3978C38.1672 28.9432 37.7199 28.7102 37.2302 28.6988C36.7414 28.6705 36.2207 28.9025 35.6681 29.3947L34.1171 30.7762L36.6775 33.6508Z" fill="black"/>
<path d="M57.1599 24.504L52.662 26.8373L53.0381 29.5065L50.6699 30.735L49.0473 17.4974L51.6062 16.1699L61.4777 25.1284L59.1095 26.3569L57.1599 24.504ZM55.6738 23.1167L51.5638 19.2378L52.3678 24.8316L55.6738 23.1167Z" fill="black"/>
<path d="M69.5346 20.6013L73.6472 19.5551L74.1239 21.4292L67.5647 23.0977L64.4482 10.8469L66.8949 10.2244L69.5346 20.6013Z" fill="black"/>
<path d="M97.1936 18.3328L92.1578 17.7693L90.9854 20.1965L88.3341 19.8998L94.3504 7.99727L97.2153 8.31785L100.434 21.2539L97.7827 20.9572L97.1936 18.3328ZM96.7305 16.3532L95.4733 10.8435L93.0293 15.939L96.7305 16.3532Z" fill="black"/>
<path d="M116.603 26.7111L114.253 25.7895L112.122 15.7228L108.985 23.7242L106.635 22.8027L111.249 11.0339L113.599 11.9554L115.704 22.0888L118.867 14.0207L121.217 14.9422L116.603 26.7111Z" fill="black"/>
<path d="M135.401 31.5142C134.657 32.5226 133.79 33.255 132.8 33.7114C131.81 34.1678 130.753 34.3143 129.627 34.151C128.518 33.9852 127.411 33.4947 126.307 32.6795L122.691 30.0105L130.198 19.84L133.814 22.509C134.918 23.3242 135.713 24.2373 136.198 25.2483C136.7 26.2567 136.879 27.301 136.735 28.3812C136.597 29.4519 136.153 30.4962 135.401 31.5142ZM127.474 30.7367C128.569 31.5449 129.626 31.8806 130.647 31.7439C131.678 31.6142 132.576 31.0308 133.341 29.9936C134.114 28.9468 134.41 27.912 134.231 26.8891C134.061 25.8734 133.428 24.9614 132.333 24.1533L130.921 23.1112L126.062 29.6947L127.474 30.7367Z" fill="black"/>
<path d="M156.025 46.4718C156.627 47.4884 156.936 48.5474 156.95 49.6489C156.971 50.7606 156.695 51.8053 156.123 52.7828C155.567 53.7645 154.755 54.5718 153.687 55.2048C152.619 55.8378 151.516 56.1656 150.378 56.1881C149.245 56.221 148.196 55.9615 147.231 55.4097C146.272 54.8682 145.491 54.0892 144.888 53.0726C144.286 52.056 143.974 50.9919 143.954 49.8801C143.939 48.7787 144.215 47.7341 144.781 46.7463C145.353 45.7687 146.173 44.9635 147.241 44.3305C148.309 43.6975 149.404 43.3676 150.526 43.3409C151.665 43.3183 152.713 43.5778 153.673 44.1193C154.638 44.6711 155.422 45.4553 156.025 46.4718ZM154.022 47.6587C153.645 47.0221 153.169 46.5476 152.596 46.2354C152.022 45.9232 151.381 45.7898 150.673 45.8351C149.98 45.8847 149.275 46.1224 148.556 46.5485C147.837 46.9745 147.285 47.4823 146.899 48.0719C146.529 48.6657 146.344 49.289 146.342 49.9421C146.341 50.5951 146.529 51.24 146.906 51.8766C147.283 52.5133 147.759 52.9877 148.333 53.2999C148.906 53.6121 149.539 53.7434 150.231 53.6939C150.94 53.6486 151.653 53.4129 152.372 52.9868C153.091 52.5608 153.635 52.0509 154.005 51.4571C154.391 50.8676 154.585 50.2463 154.586 49.5932C154.587 48.9402 154.4 48.2954 154.022 47.6587Z" fill="black"/>
<path d="M152.344 70.6328L156.263 66.4351L155.956 65.368L151.223 66.7259L150.527 64.2992L162.678 60.8131L164.006 65.4428C164.411 66.8541 164.375 68.0256 163.897 68.9575C163.423 69.9008 162.623 70.5338 161.499 70.8564C160.581 71.1197 159.738 71.0821 158.97 70.7436C158.206 70.4165 157.582 69.8006 157.099 68.8961L153.115 73.3177L152.344 70.6328ZM157.626 64.889L158.199 66.8855C158.597 68.2738 159.41 68.7919 160.638 68.4397C161.223 68.2718 161.627 67.9696 161.849 67.5332C162.086 67.105 162.103 66.5352 161.899 65.8239L161.326 63.8274L157.626 64.889Z" fill="black"/>
<path d="M167.156 85.2354C167.193 86.7748 166.841 88.0607 166.102 89.0932C165.374 90.1254 164.369 90.8 163.087 91.117L163.024 88.4678C163.591 88.2036 164.035 87.7931 164.356 87.2362C164.689 86.691 164.847 86.0484 164.83 85.3085C164.812 84.5806 164.63 83.9402 164.283 83.3872C163.935 82.8343 163.447 82.4101 162.82 82.1145C162.192 81.819 161.46 81.6811 160.625 81.701C159.3 81.7324 158.276 82.109 157.553 82.8306C156.83 83.5642 156.483 84.5456 156.513 85.7747C156.534 86.6816 156.821 87.4509 157.373 88.0826C157.926 88.7262 158.682 89.1321 159.641 89.3004L159.539 85.0222L161.347 84.9793L161.499 91.3697L159.065 91.4275C158.225 91.2683 157.447 90.9345 156.73 90.4262C156.014 89.9298 155.431 89.263 154.981 88.426C154.544 87.6005 154.312 86.6449 154.287 85.5589C154.257 84.3178 154.5 83.2136 155.014 82.2462C155.54 81.2904 156.281 80.5385 157.235 79.9905C158.201 79.4541 159.311 79.171 160.564 79.1413C161.817 79.1115 162.933 79.3417 163.912 79.8319C164.903 80.3337 165.684 81.0495 166.255 81.9792C166.826 82.9089 167.127 83.9943 167.156 85.2354Z" fill="black"/>
<path d="M154.363 106.249L155.592 101.333L153.342 99.8481L153.99 97.2599L164.985 104.808L164.286 107.605L151.036 109.072L151.683 106.484L154.363 106.249ZM156.386 106.054L162.014 105.542L157.29 102.441L156.386 106.054Z" fill="black"/>
<path d="M143.474 124.371L144.701 122.164L154.961 121.394L147.449 117.219L148.675 115.012L159.725 121.153L158.498 123.359L148.175 124.095L155.75 128.305L154.524 130.512L143.474 124.371Z" fill="black"/>
<path d="M147.128 140.034L137.545 131.79L139.192 129.876L148.775 138.12L147.128 140.034Z" fill="black"/>
<path d="M135.935 150.649C134.681 151.603 133.395 152.072 132.077 152.055C130.759 152.038 129.544 151.575 128.432 150.666L130.541 149.061C131.171 149.436 131.839 149.603 132.543 149.563C133.237 149.529 133.907 149.266 134.553 148.775C135.085 148.37 135.464 147.872 135.689 147.281C135.914 146.689 135.957 146.056 135.819 145.382C135.68 144.707 135.358 144.037 134.852 143.372C134.353 142.717 133.797 142.233 133.183 141.92C132.57 141.606 131.948 141.479 131.319 141.539C130.689 141.598 130.108 141.83 129.576 142.235C128.93 142.727 128.498 143.303 128.281 143.963C128.054 144.631 128.037 145.319 128.231 146.026L126.122 147.631C125.543 146.317 125.42 145.023 125.755 143.748C126.09 142.473 126.884 141.359 128.138 140.405C129.097 139.674 130.11 139.241 131.176 139.105C132.24 138.985 133.272 139.159 134.274 139.627C135.265 140.102 136.137 140.834 136.889 141.822C137.648 142.819 138.125 143.859 138.319 144.941C138.503 146.031 138.392 147.068 137.986 148.052C137.587 149.046 136.903 149.911 135.935 150.649Z" fill="black"/>
<circle cx="89.5272" cy="87.997" r="5.09072" fill="black"/>
</svg>
