<svg width="137" height="129" viewBox="0 0 137 129" fill="none" xmlns="http://www.w3.org/2000/svg">
<path d="M31.8968 113.51L35.1219 115.932L36.9068 114.741L38.6048 116.016L29.6694 121.746L27.8345 120.369L30.8553 110.198L32.5534 111.473L31.8968 113.51ZM31.4143 115.055L30.0497 119.341L33.7847 116.835L31.4143 115.055Z" fill="white"/>
<path d="M24.6758 105.834L22.5068 103.245L23.6866 102.257L27.146 106.386L19.4336 112.847L18.1432 111.307L24.6758 105.834Z" fill="white"/>
<path d="M17.7151 91.0146L16.3693 88.5551L17.4901 87.9418L19.6366 91.8646L12.3099 95.8736L11.5092 94.4104L17.7151 91.0146Z" fill="white"/>
<path d="M13.0746 71.4152L13.3076 73.0668L8.20707 77.5616L13.8297 76.7684L14.0627 78.4201L5.79274 79.5866L5.55975 77.935L10.7071 73.4337L5.03759 74.2334L4.8046 72.5818L13.0746 71.4152Z" fill="white"/>
<path d="M11.9475 61.5309L11.5399 64.8538L13.1352 65.6455L12.9205 67.395L5.09933 63.3367L5.33125 61.4462L13.9001 59.4106L13.6855 61.1601L11.9475 61.5309ZM10.6364 61.823L6.98757 62.6148L10.3368 64.2652L10.6364 61.823Z" fill="white"/>
<path d="M9.2673 46.9997L10.5051 47.4721L9.68254 49.6273L16.2475 52.133L15.6527 53.6914L9.08774 51.1856L8.26937 53.3297L7.03153 52.8573L9.2673 46.9997Z" fill="white"/>
<path d="M13.0146 40.1293L17.055 42.8972C17.595 43.2671 18.0819 43.4286 18.5156 43.3815C18.9473 43.3235 19.3169 43.0701 19.6244 42.6211C19.9275 42.1787 20.0259 41.749 19.9196 41.332C19.8112 40.9041 19.487 40.5052 18.947 40.1352L14.9066 37.3674L15.8426 36.0011L19.883 38.7689C20.5206 39.2057 20.9782 39.696 21.2557 40.2398C21.5312 40.7727 21.6314 41.3241 21.5564 41.8941C21.4859 42.4576 21.2679 43.0061 20.9024 43.5396C20.3363 44.3659 19.6367 44.8569 18.8035 45.0127C17.9703 45.1684 17.0754 44.9187 16.119 44.2635L12.0786 41.4957L13.0146 40.1293Z" fill="white"/>
<path d="M32.0905 27.9056L27.728 26.543L27.0682 27.1307L29.6748 30.0572L28.1743 31.3937L21.4825 23.8805L24.3452 21.3308C25.2178 20.5536 26.0707 20.1756 26.9039 20.1969C27.7442 20.2118 28.474 20.5669 29.0932 21.2622C29.5988 21.8297 29.8625 22.4472 29.8845 23.1147C29.9135 23.7758 29.687 24.4357 29.2048 25.0942L33.7506 26.427L32.0905 27.9056ZM26.1488 26.0984L27.3833 24.9989C28.2417 24.2343 28.3329 23.4725 27.6568 22.7134C27.3345 22.3515 26.9785 22.1661 26.5887 22.157C26.1997 22.1345 25.7853 22.3192 25.3454 22.7109L24.111 23.8104L26.1488 26.0984Z" fill="white"/>
<path d="M42.6406 18.6876L39.0606 20.5447L39.3599 22.6692L37.475 23.6469L36.1836 13.111L38.2203 12.0544L46.0771 19.1846L44.1923 20.1624L42.6406 18.6876ZM41.4577 17.5834L38.1865 14.4961L38.8265 18.9484L41.4577 17.5834Z" fill="white"/>
<path d="M52.6879 15.5071L55.9611 14.6744L56.3406 16.166L51.12 17.494L48.6396 7.74342L50.5869 7.24804L52.6879 15.5071Z" fill="white"/>
<path d="M75.0259 13.6788L71.0179 13.2303L70.0847 15.1621L67.9745 14.926L72.7629 5.45257L75.0431 5.70773L77.605 16.0037L75.4948 15.7675L75.0259 13.6788ZM74.6573 12.1032L73.6566 7.71791L71.7114 11.7735L74.6573 12.1032Z" fill="white"/>
<path d="M90.7083 20.4047L88.8376 19.6713L87.1419 11.659L84.645 18.0275L82.7742 17.294L86.4468 7.92707L88.3175 8.66053L89.9924 16.7259L92.5101 10.3043L94.3808 11.0378L90.7083 20.4047Z" fill="white"/>
<path d="M105.881 24.344C105.289 25.1466 104.599 25.7295 103.811 26.0927C103.023 26.456 102.182 26.5726 101.286 26.4426C100.403 26.3107 99.5221 25.9203 98.643 25.2714L95.7652 23.1471L101.74 15.0523L104.618 17.1766C105.497 17.8255 106.13 18.5522 106.516 19.3568C106.915 20.1595 107.058 20.9907 106.943 21.8504C106.833 22.7025 106.479 23.5337 105.881 24.344ZM99.5718 23.7252C100.443 24.3684 101.285 24.6356 102.098 24.5268C102.918 24.4236 103.632 23.9592 104.242 23.1337C104.857 22.3005 105.093 21.4769 104.95 20.6628C104.814 19.8544 104.311 19.1285 103.44 18.4853L102.316 17.6559L98.4482 22.8958L99.5718 23.7252Z" fill="white"/>
<path d="M122.539 36.5197C123.019 37.3288 123.264 38.1717 123.276 39.0483C123.292 39.9332 123.073 40.7646 122.617 41.5426C122.175 42.324 121.529 42.9666 120.679 43.4704C119.829 43.9742 118.951 44.2351 118.045 44.253C117.143 44.2791 116.309 44.0726 115.54 43.6335C114.777 43.2025 114.155 42.5824 113.676 41.7733C113.196 40.9642 112.948 40.1172 112.932 39.2324C112.92 38.3557 113.14 37.5243 113.59 36.7381C114.046 35.9601 114.699 35.3192 115.549 34.8154C116.399 34.3115 117.27 34.049 118.163 34.0277C119.069 34.0098 119.904 34.2163 120.667 34.6473C121.436 35.0864 122.06 35.7106 122.539 36.5197ZM120.945 37.4643C120.645 36.9576 120.267 36.58 119.81 36.3315C119.354 36.083 118.843 35.9768 118.279 36.0129C117.729 36.0523 117.167 36.2416 116.595 36.5807C116.023 36.9198 115.583 37.324 115.276 37.7932C114.982 38.2658 114.834 38.7619 114.833 39.2817C114.832 39.8015 114.981 40.3147 115.282 40.8214C115.582 41.3281 115.96 41.7057 116.417 41.9542C116.874 42.2027 117.377 42.3072 117.928 42.2678C118.492 42.2317 119.06 42.0441 119.632 41.705C120.204 41.3659 120.638 40.9601 120.932 40.4875C121.239 40.0183 121.393 39.5238 121.394 39.004C121.395 38.4843 121.246 37.971 120.945 37.4643Z" fill="white"/>
<path d="M119.701 55.964L122.82 52.623L122.576 51.7737L118.809 52.8545L118.255 50.923L127.926 48.1484L128.983 51.8332C129.306 52.9565 129.277 53.889 128.896 54.6306C128.519 55.3814 127.882 55.8852 126.987 56.142C126.257 56.3516 125.586 56.3216 124.975 56.0522C124.367 55.7918 123.87 55.3017 123.486 54.5818L120.314 58.101L119.701 55.964ZM123.905 51.3925L124.361 52.9815C124.678 54.0865 125.325 54.4988 126.302 54.2185C126.768 54.0849 127.089 53.8444 127.266 53.4971C127.455 53.1562 127.468 52.7027 127.306 52.1365L126.85 50.5475L123.905 51.3925Z" fill="white"/>
<path d="M131.528 67.8173C131.557 69.0425 131.277 70.066 130.689 70.8878C130.109 71.7093 129.31 72.2462 128.289 72.4985L128.239 70.39C128.69 70.1797 129.044 69.853 129.299 69.4097C129.565 68.9758 129.69 68.4644 129.676 67.8755C129.662 67.2961 129.517 66.7864 129.241 66.3463C128.964 65.9062 128.576 65.5686 128.076 65.3333C127.577 65.0981 126.994 64.9884 126.329 65.0042C125.275 65.0292 124.46 65.3289 123.885 65.9033C123.309 66.4872 123.033 67.2682 123.056 68.2465C123.074 68.9684 123.302 69.5807 123.742 70.0834C124.181 70.5956 124.783 70.9187 125.546 71.0526L125.466 67.6476L126.905 67.6135L127.025 72.6996L125.088 72.7456C124.419 72.6189 123.8 72.3533 123.23 71.9487C122.66 71.5536 122.196 71.0229 121.838 70.3567C121.49 69.6997 121.305 68.9391 121.285 68.0748C121.261 67.087 121.454 66.2081 121.864 65.4381C122.283 64.6774 122.872 64.079 123.631 63.6428C124.401 63.2159 125.284 62.9906 126.281 62.9669C127.278 62.9432 128.166 63.1264 128.945 63.5166C129.734 63.916 130.356 64.4857 130.811 65.2256C131.265 65.9656 131.505 66.8295 131.528 67.8173Z" fill="white"/>
<path d="M121.32 84.7876L122.298 80.875L120.508 79.6929L121.023 77.6329L129.774 83.6405L129.217 85.8663L118.672 87.0341L119.187 84.9741L121.32 84.7876ZM122.93 84.6321L127.41 84.2245L123.649 81.7565L122.93 84.6321Z" fill="white"/>
<path d="M112.564 99.4347L113.54 97.6783L121.707 97.0648L115.727 93.742L116.703 91.9856L125.498 96.873L124.522 98.6294L116.305 99.2151L122.334 102.566L121.358 104.322L112.564 99.4347Z" fill="white"/>
<path d="M115.366 112.054L107.739 105.493L109.05 103.969L116.677 110.531L115.366 112.054Z" fill="white"/>
<path d="M106.317 120.634C105.319 121.394 104.295 121.767 103.246 121.753C102.197 121.74 101.231 121.371 100.346 120.648L102.024 119.37C102.526 119.669 103.057 119.802 103.617 119.77C104.17 119.743 104.703 119.534 105.217 119.143C105.641 118.82 105.942 118.424 106.121 117.953C106.3 117.483 106.335 116.979 106.224 116.442C106.114 115.905 105.858 115.372 105.455 114.843C105.058 114.321 104.615 113.936 104.127 113.686C103.639 113.437 103.144 113.336 102.643 113.383C102.142 113.431 101.679 113.615 101.256 113.937C100.742 114.329 100.398 114.787 100.225 115.313C100.045 115.844 100.031 116.392 100.186 116.955L98.5072 118.232C98.0457 117.187 97.9482 116.157 98.2146 115.142C98.4811 114.127 99.1132 113.24 100.111 112.481C100.875 111.899 101.681 111.555 102.529 111.446C103.376 111.351 104.198 111.489 104.995 111.862C105.784 112.24 106.478 112.822 107.077 113.608C107.681 114.402 108.06 115.23 108.214 116.092C108.361 116.959 108.273 117.784 107.95 118.567C107.632 119.358 107.088 120.047 106.317 120.634Z" fill="white"/>
<circle cx="68.8233" cy="70.0379" r="4.05177" fill="white"/>
</svg>
